<?xml version="1.0" encoding="utf-8"?>
<!-- Generator: Adobe Illustrator 25.0.0, SVG Export Plug-In . SVG Version: 6.00 Build 0)  -->
<svg version="1.1" id="Layer_1" xmlns="http://www.w3.org/2000/svg" xmlns:xlink="http://www.w3.org/1999/xlink" x="0px" y="0px"
	 viewBox="0 0 1920 1080" style="enable-background:new 0 0 1920 1080;" xml:space="preserve">
<g>
	<path d="M771.8,496.9l11.8,21.9l11.8-21.9h16.7v34.2h-10.4v-24.7l-14.2,24.7h-7.9l-13.8-24.5v24.5h-10.4v-34.2H771.8z"/>
	<path d="M847.6,496.9l18.5,34.2h-11.4l-3.4-6.2h-21l-3.1,6.2h-11.5l18.2-34.2H847.6z M847.4,517.8l-6.7-12.7l-6.5,12.7H847.4z"/>
	<path d="M880.2,496.9v12.6h5l13.2-12.6h14l-18.2,16.6l20.5,17.6h-14.8l-15-12.9h-4.7v12.9h-10.4v-34.2H880.2z"/>
	<path d="M948.8,508.7c-0.3-3.1-1.5-3.4-4.3-3.4h-11.6c-1.4,0-3.6-0.3-4.5,1.5c-0.3,0.6-0.3,2,0,2.6c1,1.5,4,1.4,6.2,1.4l12.7,0.3
		c3.1,0.1,9.7-0.4,12.1,4c1.4,2.7,1.3,8.9-0.4,11.7c-2.6,4.4-10.4,4.4-14,4.4h-17.1c-2,0-6.7-0.3-9-3.7c-1.1-1.7-1.2-5.4-1.2-7.6
		H928c0.3,3.1,2.1,2.9,4,2.9h12.2c1.4,0,4.5,0.1,5.4-1.1c0.4-0.6,0.4-1.7,0-2.6c-0.7-1.4-3.4-1.2-6.3-1.3l-13.5-0.3
		c-3.3,0-8.9,0-11-4c-1.4-2.7-1.4-9.9,0.1-12.6c2.6-4.3,7.6-4,12.4-4H949c2.8,0,6.8,0.5,8.9,3.7c1.2,1.7,1.1,6.3,1.1,8.1H948.8z"/>
	<path d="M993.5,496.9l18.5,34.2h-11.4l-3.4-6.2h-21l-3.1,6.2h-11.5l18.2-34.2H993.5z M993.3,517.8l-6.7-12.7l-6.5,12.7H993.3z"/>
	<path d="M1045.5,496.9c3.9,0,9.1-0.3,12.5,3.1c2.9,3,2.9,6.8,2.9,10.7v6.8c0,3.2,0.1,7.5-2.8,10.4c-3.1,3.1-9.4,3.2-12.8,3.2h-29.7
		v-34.2H1045.5z M1041.7,522.7c3.7,0,6.4,0.2,8.1-2.5c0.9-1.6,0.9-11,0.1-12.6c-1.4-2.7-5.2-2.4-8.8-2.4h-15v17.5H1041.7z"/>
	<path d="M1069.8,528c-2.8-2.8-2.8-8.6-2.8-10.9v-7.1c0-2.5-0.2-7.3,2.8-10.3c3.1-3.1,8-3,12.1-3h16.8c4.1,0,8.9,0,12.1,3
		c2.7,2.6,2.4,7.8,2.4,10.3v7.1c0,2.9,0.4,8.1-2.4,10.9c-2.9,2.9-10,3.1-12.3,3.1h-16.3C1078.9,531.1,1072.7,531,1069.8,528z
		 M1102.2,520.5c0.3-0.5,0.5-2.3,0.5-4.2v-4.6c0-1.9-0.2-3.7-0.5-4.2c-1.5-2.6-4.6-2.3-6.3-2.3h-11.7c-1.7,0-4.8-0.3-6.3,2.3
		c-0.3,0.5-0.5,2-0.5,4.2v4.6c0,2,0.2,3.7,0.5,4.2c1.5,2.6,4.6,2.3,6.3,2.3h11.7C1097.6,522.7,1100.7,523.1,1102.2,520.5z"/>
	<path d="M1125.8,496.9l13.1,25.2l13.4-25.2h11.3l-18.2,34.2h-12.8l-18-34.2H1125.8z"/>
	<path d="M873.5,559.7c-0.3-3.7-2-3.4-5.2-3.4h-9c-4.2,0-6.9-0.3-8.3,2.3c-0.8,1.5-0.9,11.8,0.1,13.3c1.4,2.1,4.1,1.9,5.7,1.9h11.4
		c1.1,0,3.8,0.3,4.8-1.5c0.4-0.8,0.3-1.6,0.3-2.8h-12.8v-6.9h23.3v7.4c0,2,0.3,7.1-2.3,9.7c-2.3,2.3-8.8,2.5-10.2,2.5h-18
		c-2.5,0-7.5,0.4-10.6-2.9c-2.9-3-2.9-7.4-2.9-10.9v-7.1c0-2.9-0.3-7.4,2.7-10.4c3-2.9,8.9-2.9,11.9-3h17.1c2.5,0,8.3,0.2,10.8,4.2
		c1.2,2,1.2,4.7,1.2,7.6H873.5z"/>
	<path d="M929.3,550.9c2.1,2.7,2.2,10.4,1.4,13.1c-0.9,3.3-2.9,3.9-5.3,4.8c1.2,0.4,2,0.6,2.8,1.1c3.2,2,2.8,6.9,2.8,9.7v2.6h-10.4
		c0-3.9,0.2-6.8-1-7.9c-1.1-1.1-4.1-1-5.3-1H900v8.9h-10.4v-34.2h29.7C923,547.9,926.9,547.7,929.3,550.9z M914.9,564.5
		c1.4,0,4.7,0.1,5.8-1.6c0.6-0.9,0.6-3.8,0-4.8c-1-2-4.3-1.7-5.7-1.7h-15v8.2H914.9z"/>
	<path d="M939.5,579.1c-2.8-2.8-2.8-8.6-2.8-10.9v-7.1c0-2.5-0.2-7.3,2.8-10.3c3.1-3.1,8-3,12.1-3h16.8c4.1,0,8.9,0,12.1,3
		c2.7,2.6,2.4,7.8,2.4,10.3v7.1c0,2.9,0.4,8.1-2.4,10.9c-2.9,2.9-10,3.1-12.3,3.1h-16.3C948.6,582.2,942.4,582,939.5,579.1z
		 M971.9,571.5c0.3-0.5,0.5-2.3,0.5-4.2v-4.6c0-1.9-0.2-3.7-0.5-4.2c-1.5-2.6-4.6-2.3-6.3-2.3h-11.7c-1.7,0-4.9-0.3-6.3,2.3
		c-0.3,0.5-0.5,2-0.5,4.2v4.6c0,2,0.2,3.7,0.5,4.2c1.5,2.6,4.6,2.3,6.3,2.3h11.7C967.2,573.8,970.4,574.1,971.9,571.5z"/>
	<path d="M998.7,547.9v16.8c0,2.2-0.3,6,1.4,7.7c1.7,1.6,4.4,1.4,5.9,1.4h8.4c0.9,0,3.8,0.3,5.3-1.3c1.4-1.4,1.1-4.4,1.1-7.5v-17.1
		h10.4v20.3c0,3.9,0.4,7.7-2.7,10.8c-3.3,3.3-7.5,3.1-12,3.1h-15.3c-3.7,0-6.6,0.3-10-3.2c-3.2-3.4-2.9-9.2-2.9-11.9v-19.2H998.7z"
		/>
	<path d="M1062.8,547.9c3.1,0,10-0.1,12.8,4.9c2,3.6,2,12.8-0.1,16.5c-2.9,5-6.8,4.4-11.3,4.5H1047v8.4h-10.4v-34.2H1062.8z
		 M1060.8,565.4c1.6,0,3.9,0.2,5.1-1.7c0.5-0.9,0.5-4.6,0-5.3c-1.2-2.3-3.8-2.1-7.5-2.1H1047v9.1H1060.8z"/>
</g>
</svg>
